<svg xmlns="http://www.w3.org/2000/svg" id="fax" width="14.002" height="14.002" viewBox="0 0 14.002 14.002">
    <defs>
        <style>
            .cls-1{fill:#f7bcbe}
        </style>
    </defs>
    <path id="Path_17439" d="M63.282 77.641a1.641 1.641 0 0 0-3.282 0v8.232a1.641 1.641 0 0 0 3.282 0z" class="cls-1" transform="translate(-58.359 -73.922)"/>
    <path id="Path_17440" d="M271 212h4.1v.82H271z" class="cls-1" transform="translate(-263.589 -206.202)"/>
    <path id="Path_17441" d="M178.522 121h-7.89a2.44 2.44 0 0 1 .041.41v8.232a2.459 2.459 0 0 1-1.106 2.051h8.954a.41.41 0 0 0 .41-.41v-9.873a.41.41 0 0 0-.409-.41zm-5.77 9.052a.41.41 0 1 1 .41-.41.41.41 0 0 1-.41.41zm0-1.641a.41.41 0 1 1 .41-.41.41.41 0 0 1-.41.41zm0-1.641a.41.41 0 1 1 .41-.41.41.41 0 0 1-.41.41zm1.641 3.282a.41.41 0 1 1 .41-.41.41.41 0 0 1-.41.41zm0-1.641a.41.41 0 1 1 .41-.41.41.41 0 0 1-.41.41zm0-1.641a.41.41 0 1 1 .41-.41.41.41 0 0 1-.41.41zm1.641 3.282a.41.41 0 1 1 .41-.41.41.41 0 0 1-.41.41zm0-1.641a.41.41 0 1 1 .41-.41.41.41 0 0 1-.41.41zm0-1.641a.41.41 0 1 1 .41-.41.41.41 0 0 1-.41.41zm1.231-2.051a.41.41 0 0 1-.41.41h-4.923a.41.41 0 0 1-.41-.41v-1.641a.41.41 0 0 1 .41-.41h4.923a.41.41 0 0 1 .41.41z" class="cls-1" transform="translate(-164.931 -117.691)"/>
    <path id="Path_17442" d="M246.333 0h-4.923a.41.41 0 0 0-.41.41v2.051h5.743V.41a.41.41 0 0 0-.41-.41zm-1.641 1.641h-1.641a.41.41 0 0 1 0-.82h1.641a.41.41 0 1 1 0 .82z" class="cls-1" transform="translate(-234.409)"/>
    <path id="Path_17443" d="M.82 129.642v-8.232a2.441 2.441 0 0 1 .042-.41H.41a.41.41 0 0 0-.41.41v9.872a.41.41 0 0 0 .41.41h1.516a2.459 2.459 0 0 1-1.106-2.05z" class="cls-1" transform="translate(0 -117.691)"/>
</svg>
