<svg xmlns="http://www.w3.org/2000/svg" width="14.001" height="14" viewBox="0 0 14.001 14">
    <defs>
        <style>
            .cls-1{fill:#f7bcbe}
        </style>
    </defs>
    <g id="Page-1" transform="translate(.003)">
        <g id="_003---Call" transform="translate(-.003)">
            <path id="Shape" d="M6.795 8.248A5.651 5.651 0 0 1 5.089 5.04a.48.48 0 0 1 .138-.4l1.081-1.082a.483.483 0 0 0 .068-.6L4.654.286A.483.483 0 0 0 4.029.11l-2.764 1.3A.48.48 0 0 0 1 1.892a13.361 13.361 0 0 0 4.068 8.082 13.358 13.358 0 0 0 8.082 4.069.48.48 0 0 0 .48-.266l1.3-2.764a.483.483 0 0 0-.175-.624l-2.672-1.721a.483.483 0 0 0-.6.068L10.4 9.817a.48.48 0 0 1-.4.138 5.651 5.651 0 0 1-3.205-1.707z" class="cls-1" transform="translate(-.997 -.045)"/>
            <path id="Shape-2" d="M32.586 15.069a.483.483 0 0 1-.483-.483 3.625 3.625 0 0 0-3.621-3.621.483.483 0 1 1 0-.966 4.591 4.591 0 0 1 4.586 4.586.483.483 0 0 1-.482.484z" class="cls-1" transform="translate(-21.482 -7.586)"/>
            <path id="Shape-3" d="M35 7.483A.483.483 0 0 1 34.518 7 6.042 6.042 0 0 0 28.483.966a.483.483 0 1 1 0-.966 7.008 7.008 0 0 1 7 7 .483.483 0 0 1-.483.483z" class="cls-1" transform="translate(-21.482)"/>
        </g>
    </g>
</svg>
