<svg xmlns="http://www.w3.org/2000/svg" width="16.414" height="16.307" viewBox="0 0 16.414 16.307">
    <defs>
        <style>
            .cls-1{fill:#f7bcbe}
        </style>
    </defs>
    <g id="globalization" transform="translate(0 -1.668)">
        <path id="Path_17444" d="M273.942 141.4a16.8 16.8 0 0 1-2.972.339v2.854h3.382a15.481 15.481 0 0 0-.41-3.193z" class="cls-1" transform="translate(-262.282 -135.254)"/>
        <path id="Path_17445" d="M3.381 110.253a16.471 16.471 0 0 1 .439-3.42 10.83 10.83 0 0 1-2.282-.91A8.145 8.145 0 0 0 0 110.253z" class="cls-1" transform="translate(0 -100.912)"/>
        <path id="Path_17446" d="M3.381 270.97H0a8.145 8.145 0 0 0 1.539 4.33 10.825 10.825 0 0 1 2.282-.91 16.469 16.469 0 0 1-.44-3.42z" class="cls-1" transform="translate(0 -260.668)"/>
        <path id="Path_17447" d="M271.873 2.17a2.422 2.422 0 0 0-.9-.5v3.855a15.883 15.883 0 0 0 2.71-.3 9.835 9.835 0 0 0-.544-1.339 5.354 5.354 0 0 0-1.266-1.716z" class="cls-1" transform="translate(-262.283)"/>
        <path id="Path_17448" d="M69.275 406.48a10.047 10.047 0 0 0-1.919.743c.076.083.154.164.234.244a8.185 8.185 0 0 0 3.238 2 7.249 7.249 0 0 1-.931-1.443 10.841 10.841 0 0 1-.622-1.544z" class="cls-1" transform="translate(-65.196 -391.833)"/>
        <path id="Path_17449" d="M157 3.883a9.842 9.842 0 0 0-.544 1.339 15.883 15.883 0 0 0 2.71.3V1.668a2.422 2.422 0 0 0-.9.5A5.352 5.352 0 0 0 157 3.883z" class="cls-1" transform="translate(-151.44)"/>
        <path id="Path_17450" d="M393.22 270.97a16.473 16.473 0 0 1-.439 3.42 10.826 10.826 0 0 1 2.282.91 8.146 8.146 0 0 0 1.539-4.33z" class="cls-1" transform="translate(-380.188 -260.668)"/>
        <path id="Path_17451" d="M337.852 15.315a10.045 10.045 0 0 0 1.919-.743c-.076-.083-.154-.164-.234-.244a8.186 8.186 0 0 0-3.238-2 7.246 7.246 0 0 1 .931 1.443 10.841 10.841 0 0 1 .622 1.544z" class="cls-1" transform="translate(-325.518 -10.319)"/>
        <path id="Path_17452" d="M273.136 391.622a9.836 9.836 0 0 0 .544-1.339 15.879 15.879 0 0 0-2.71-.3v3.857a2.421 2.421 0 0 0 .9-.5 5.352 5.352 0 0 0 1.266-1.718z" class="cls-1" transform="translate(-262.282 -375.862)"/>
        <path id="Path_17453" d="M392.781 106.835a16.473 16.473 0 0 1 .439 3.42h3.38a8.145 8.145 0 0 0-1.539-4.33 10.832 10.832 0 0 1-2.28.91z" class="cls-1" transform="translate(-380.188 -100.914)"/>
        <path id="Path_17454" d="M270.97 270.97v2.854a16.8 16.8 0 0 1 2.972.339 15.481 15.481 0 0 0 .41-3.192z" class="cls-1" transform="translate(-262.282 -260.668)"/>
        <path id="Path_17455" d="M138.859 144.594v-2.854a16.8 16.8 0 0 1-2.972-.339 15.479 15.479 0 0 0-.41 3.192z" class="cls-1" transform="translate(-131.133 -135.254)"/>
        <path id="Path_17456" d="M69.275 15.315a10.838 10.838 0 0 1 .621-1.543 7.247 7.247 0 0 1 .931-1.443 8.186 8.186 0 0 0-3.238 2c-.08.08-.158.162-.234.244a10.049 10.049 0 0 0 1.92.742z" class="cls-1" transform="translate(-65.196 -10.319)"/>
        <path id="Path_17457" d="M337.853 406.48a10.835 10.835 0 0 1-.621 1.543 7.246 7.246 0 0 1-.931 1.443 8.185 8.185 0 0 0 3.238-2c.08-.08.158-.162.234-.244a10.047 10.047 0 0 0-1.92-.742z" class="cls-1" transform="translate(-325.519 -391.833)"/>
        <path id="Path_17458" d="M138.859 270.97h-3.382a15.479 15.479 0 0 0 .41 3.192 16.8 16.8 0 0 1 2.972-.339z" class="cls-1" transform="translate(-131.133 -260.668)"/>
        <path id="Path_17459" d="M158.264 393.335a2.422 2.422 0 0 0 .9.5v-3.857a15.889 15.889 0 0 0-2.71.3 9.835 9.835 0 0 0 .544 1.339 5.353 5.353 0 0 0 1.266 1.718z" class="cls-1" transform="translate(-151.44 -375.863)"/>
    </g>
</svg>
