<svg xmlns="http://www.w3.org/2000/svg" width="13.014" height="10.81" viewBox="0 0 13.014 10.81">
    <g>
        <g>
            <path fill="#fff" d="M.731 46.058h-.02H9.42l-2.738-2.739a.719.719 0 0 1 0-1.011l.426-.426a.713.713 0 0 1 1.006 0l4.693 4.692a.717.717 0 0 1 0 1.009l-4.693 4.693a.713.713 0 0 1-1.006 0l-.426-.426a.7.7 0 0 1-.208-.5.684.684 0 0 1 .208-.493l2.768-2.762H.722a.738.738 0 0 1-.722-.73v-.6a.723.723 0 0 1 .731-.707z" transform="translate(0 -41.674)"/>
        </g>
    </g>
</svg>
